<?xml version="1.0" encoding="utf-8"?>
<!-- Generator: Adobe Illustrator 22.1.0, SVG Export Plug-In . SVG Version: 6.00 Build 0)  -->
<svg version="1.1" id="Layer_1" xmlns="http://www.w3.org/2000/svg" xmlns:xlink="http://www.w3.org/1999/xlink" x="0px" y="0px"
	 viewBox="0 0 73.5 81.5" style="enable-background:new 0 0 73.5 81.5;" xml:space="preserve">
<style type="text/css">
	.st0{fill:#E81C66;}
</style>
<g>
	<path class="st0" d="M43.3,23.7c0,3.3-2.6,5.9-5.9,5.9s-5.9-2.6-5.9-5.9s2.6-5.9,5.9-5.9S43.3,20.5,43.3,23.7 M62.3,23.7
		c0,3.3-2.6,5.9-5.9,5.9c-0.1,0-0.2,0-0.2,0c-2.5,8-10,13.8-18.8,13.8c-8.8,0-16.3-5.8-18.8-13.8c-0.1,0-0.2,0-0.2,0
		c-3.3,0-5.9-2.6-5.9-5.9s2.6-5.9,5.9-5.9c0.1,0,0.2,0,0.2,0c2.5-8,10-13.8,18.8-13.8c8.8,0,16.3,5.8,18.8,13.8c0.1,0,0.2,0,0.2,0
		C59.6,17.8,62.3,20.5,62.3,23.7 M51.3,23.7c0-7.7-6.2-13.9-13.9-13.9c-7.7,0-13.9,6.2-13.9,13.9s6.2,13.9,13.9,13.9
		C45.1,37.6,51.3,31.4,51.3,23.7"/>
	<path d="M37.8,61v9.6h-4.5l-0.5-1.4c-1.3,1.2-3.1,1.9-4.8,1.9c-3,0-5-1.9-5-4.8c0-2.7,2.4-4.5,6.1-4.5h3.7v-0.4
		c0-1.6-1-2.4-2.6-2.4c-1.2,0-2.7,0.5-4.4,1.4l-1.7-3.5c1.6-1.3,4.3-2.2,6.9-2.2C35.1,54.7,37.8,57.2,37.8,61 M32.8,64.9v-0.4h-2.7
		c-1.2,0-2,0.6-2,1.6c0,0.9,0.7,1.5,1.9,1.5C31.6,67.6,32.8,66.5,32.8,64.9 M56.8,62.7c0,5.1-3.3,8.5-8.2,8.5
		c-1.2,0-2.3-0.3-3.3-0.7v6.9h-5v-22h4.5l0.4,1.3c1.2-1.2,3-1.8,4.9-1.8C54,54.7,56.8,57.8,56.8,62.7 M51.5,62.9
		c0-2.3-1.3-3.8-3-3.8c-1.9,0-3.2,1.2-3.2,2.9v4.2c0.8,0.4,1.8,0.7,2.6,0.7C50.1,66.8,51.5,65.3,51.5,62.9 M64.1,64.8l-1.3-0.4
		c-2.4-0.7-4.7-1.7-4.7-4.7c0-3,2.4-5,6.1-5c2.1,0,4.6,0.7,6.3,1.6l-1.6,3.5c-1.3-0.8-2.9-1.3-4.1-1.3c-0.8,0-1.4,0.4-1.4,0.9
		c0,0.5,0.5,0.9,1.4,1.2L66,61c2.4,0.7,4.9,1.6,4.9,5.1c0,3-2.6,5-6.4,5c-2.1,0-5-0.8-7.1-1.9l1.8-3.8c2.3,1,4.2,1.5,5.3,1.5
		c0.8,0,1.4-0.4,1.4-1C65.8,65.4,65.2,65.1,64.1,64.8 M16.2,70.6h5V48.5h-5V70.6z M12.9,55.2H9.9v-0.7c0-1.5,1-2.1,2.2-2.1
		c0.6,0,1.3,0.2,2,0.5l0,0v-4.3c-1-0.3-2-0.5-2.9-0.5c-3.6,0-6.4,2.1-6.4,6.2v1h-2v4.2h2v11.2h5V59.4h2.9V55.2z"/>
</g>
</svg>
