<svg width="16" height="17" viewBox="0 0 16 17" fill="none" xmlns="http://www.w3.org/2000/svg">
<path d="M13.16 4.39H2.00004C1.94045 4.38495 1.88045 4.39209 1.82371 4.41101C1.76697 4.42992 1.71468 4.4602 1.67004 4.5C1.62804 4.54318 1.59634 4.59528 1.57729 4.65242C1.55824 4.70956 1.55235 4.77026 1.56004 4.83L2.71004 14.83C2.77391 15.3594 3.03044 15.8467 3.43068 16.199C3.83092 16.5512 4.34686 16.7438 4.88004 16.74H10.42C10.9724 16.7493 11.5076 16.5476 11.9164 16.176C12.3252 15.8043 12.5768 15.2908 12.62 14.74L13.56 4.8C13.5644 4.74802 13.5568 4.69573 13.5377 4.64717C13.5186 4.59862 13.4886 4.55511 13.45 4.52C13.3729 4.44205 13.2695 4.39569 13.16 4.39ZM11.78 14.67C11.745 14.9926 11.5896 15.2901 11.345 15.5032C11.1003 15.7163 10.7844 15.8294 10.46 15.82H4.92004C4.60209 15.8293 4.2924 15.7179 4.05313 15.5083C3.81387 15.2987 3.66272 15.0064 3.63004 14.69L2.53004 5.27H12.68L11.78 14.67Z" fill="black"/>
<path d="M14.77 2H10.24V1.27C10.2508 0.945408 10.1328 0.629709 9.91177 0.391784C9.6907 0.153859 9.38451 0.0130218 9.06 0L6.22 0C5.89895 0.00256794 5.59164 0.130563 5.36368 0.356648C5.13573 0.582732 5.00521 0.888986 5 1.21V2H0.44C0.326689 1.99988 0.2177 2.04348 0.135736 2.12172C0.0537715 2.19996 0.00515046 2.30681 0 2.42C0 2.5367 0.046357 2.64861 0.128873 2.73113C0.211389 2.81364 0.323305 2.86 0.44 2.86H14.77C14.8867 2.86 14.9986 2.81364 15.0811 2.73113C15.1636 2.64861 15.21 2.5367 15.21 2.42C15.2048 2.30681 15.1562 2.19996 15.0743 2.12172C14.9923 2.04348 14.8833 1.99988 14.77 2ZM9.36 1.27V2H5.85V1.27C5.83863 1.1786 5.86374 1.08639 5.9199 1.01339C5.97606 0.94038 6.05874 0.892454 6.15 0.88H9C9.04598 0.877297 9.09204 0.883696 9.13554 0.898831C9.17904 0.913965 9.21913 0.937536 9.2535 0.968193C9.28788 0.998851 9.31586 1.03599 9.33585 1.07749C9.35584 1.11898 9.36745 1.16401 9.37 1.21C9.37 1.21 9.36 1.25 9.36 1.27Z" fill="black"/>
<path d="M7.60003 6.35001C7.48242 6.35262 7.37052 6.40118 7.28828 6.48529C7.20604 6.5694 7.16 6.68237 7.16003 6.80001V14.28C7.1504 14.344 7.15471 14.4094 7.17265 14.4716C7.1906 14.5338 7.22175 14.5914 7.264 14.6405C7.30624 14.6896 7.35858 14.7289 7.41744 14.7559C7.47629 14.7829 7.54028 14.7969 7.60503 14.7969C7.66978 14.7969 7.73377 14.7829 7.79262 14.7559C7.85148 14.7289 7.90381 14.6896 7.94606 14.6405C7.9883 14.5914 8.01946 14.5338 8.03741 14.4716C8.05535 14.4094 8.05966 14.344 8.05003 14.28V6.80001C8.05003 6.68066 8.00262 6.5662 7.91823 6.48181C7.83384 6.39742 7.71938 6.35001 7.60003 6.35001Z" fill="black"/>
</svg>
