<svg width="20" height="20" viewBox="0 0 20 20" fill="none" xmlns="http://www.w3.org/2000/svg">
<path fill-rule="evenodd" clip-rule="evenodd" d="M10.6169 1.8065L8.95209 3.50059C8.81796 3.63708 8.58125 3.63708 8.44712 3.50059C8.30509 3.35607 8.30509 3.13126 8.44712 2.98674L9.25192 2.15977L8.83374 2.19188C4.74658 2.47289 1.54313 5.96546 1.54313 10.1324C1.54313 10.3332 1.38533 10.4937 1.18807 10.4937C0.990813 10.4937 0.833008 10.3332 0.833008 10.1324C0.833008 5.52387 4.38363 1.71818 8.90475 1.46126L9.25981 1.4452L8.44712 0.618224C8.30509 0.473704 8.30509 0.248895 8.44712 0.104375C8.51813 0.0321155 8.61281 0 8.6996 0C8.7864 0 8.88108 0.0321155 8.95209 0.112404L10.6169 1.8065ZM14.3803 1.4372C12.9758 1.4372 11.8317 2.60139 11.8317 4.03053C11.8317 5.45967 12.9758 6.62386 14.3803 6.62386C15.7847 6.62386 16.9288 5.45967 16.9288 4.03053C16.9288 2.60139 15.7847 1.4372 14.3803 1.4372ZM14.3803 5.89323C13.3703 5.89323 12.5418 5.05822 12.5418 4.0225C12.5418 2.98677 13.3624 2.15177 14.3803 2.15177C15.3981 2.15177 16.2187 2.98677 16.2187 4.0225C16.2187 5.05822 15.3981 5.89323 14.3803 5.89323ZM3.75228 8.39022C3.75228 6.96108 4.89637 5.79689 6.30084 5.79689C7.7053 5.79689 8.84939 6.96108 8.84939 8.39022C8.84939 9.81936 7.7053 10.9835 6.30084 10.9835C4.89637 10.9835 3.75228 9.81936 3.75228 8.39022ZM4.4624 8.38219C4.4624 9.41791 5.29088 10.2529 6.30084 10.2529C7.31079 10.2529 8.13927 9.41791 8.13927 8.38219C8.13927 7.34646 7.31868 6.51146 6.30084 6.51146C5.28299 6.51146 4.4624 7.34646 4.4624 8.38219ZM1.36162 14.7731C2.15854 12.8382 4.14688 11.5455 6.30093 11.5455C8.49442 11.5455 10.4354 12.8141 11.2323 14.7651C11.2718 14.8534 11.2718 14.9498 11.2323 15.0381C11.2008 15.1264 11.1298 15.1906 11.043 15.2308C10.8615 15.3111 10.6485 15.2147 10.5775 15.0381C9.891 13.3761 8.17092 12.2601 6.29304 12.2601C4.42304 12.2601 2.69508 13.3841 2.00862 15.0461C1.97706 15.1344 1.90605 15.1987 1.81926 15.2388C1.74035 15.279 1.63778 15.279 1.55099 15.2388C1.46419 15.2067 1.40107 15.1344 1.36162 15.0461C1.32217 14.9578 1.32217 14.8615 1.36162 14.7731ZM19.3278 10.4215C19.3673 10.5098 19.3673 10.6061 19.3278 10.6944C19.2883 10.7828 19.2173 10.855 19.1305 10.8711C18.9491 10.9514 18.736 10.855 18.665 10.6784C17.9786 9.01641 16.2585 7.9004 14.3806 7.9004C12.5106 7.9004 10.7826 9.02444 10.0962 10.6864C10.0646 10.7747 9.99361 10.839 9.90682 10.8791C9.82003 10.9193 9.72534 10.9193 9.63855 10.8791C9.55176 10.847 9.48864 10.7747 9.44919 10.6864C9.40973 10.5981 9.40973 10.5018 9.44919 10.4134C10.2461 8.48651 12.2344 7.19386 14.3885 7.19386C16.582 7.19386 18.523 8.46242 19.3278 10.4215ZM7.78331 18.6591C8.32774 18.7635 8.86427 18.8197 9.37714 18.8197C13.4801 18.8197 17.007 15.849 17.7645 11.7463C17.8039 11.5536 17.6698 11.3609 17.4804 11.3207C17.3858 11.3047 17.2911 11.3207 17.2122 11.3769C17.1333 11.4331 17.078 11.5134 17.0623 11.6098C16.3679 15.3673 13.125 18.0891 9.36925 18.0891C8.87216 18.0891 8.35141 18.0248 7.73597 17.8964L7.39668 17.8241L8.35141 17.0935C8.50921 16.9731 8.54077 16.7482 8.42242 16.5877C8.36719 16.5074 8.28039 16.4592 8.18571 16.4431C8.09892 16.4351 8.00423 16.4592 7.93322 16.5154L6.05534 17.9445L7.41246 19.8554C7.52293 20.008 7.75175 20.0481 7.90955 19.9357C8.06736 19.8153 8.10681 19.5905 7.98845 19.4299L7.38879 18.5869L7.78331 18.6591Z" fill="black"/>
</svg>
