<svg width="17" height="17" viewBox="0 0 17 17" fill="none" xmlns="http://www.w3.org/2000/svg">
<path d="M8.45755 0C6.77824 0.00839669 5.13904 0.514044 3.74682 1.45313C2.35459 2.39222 1.27174 3.72266 0.634899 5.27656C-0.00193799 6.83047 -0.164216 8.53819 0.168545 10.1842C0.501305 11.8303 1.31419 13.3409 2.50462 14.5254C3.69505 15.7099 5.20967 16.5152 6.85735 16.8398C8.50502 17.1643 10.2119 16.9935 11.7626 16.3489C13.3133 15.7043 14.6384 14.6149 15.5705 13.218C16.5026 11.8211 17.0001 10.1794 17.0001 8.50005C16.9866 6.24249 16.081 4.08186 14.4806 2.48948C12.8803 0.897103 10.7152 0.00220399 8.45755 0ZM8.45755 16.3711C6.90753 16.3711 5.39232 15.9115 4.10352 15.0503C2.81473 14.1892 1.81023 12.9652 1.21707 11.5332C0.623899 10.1011 0.4687 8.52536 0.771094 7.00512C1.07349 5.48488 1.81989 4.08845 2.91593 2.99242C4.01196 1.89639 5.40838 1.14999 6.92862 0.847591C8.44886 0.545197 10.0246 0.700396 11.4567 1.29356C12.8887 1.88673 14.1127 2.89123 14.9738 4.18002C15.835 5.46882 16.2946 6.98403 16.2946 8.53405C16.2924 10.6119 15.4659 12.604 13.9967 14.0732C12.5275 15.5424 10.5354 16.3688 8.45755 16.3711ZM12.2061 7.71805C12.4531 7.48416 12.6243 7.18154 12.6975 6.84932C12.7707 6.5171 12.7426 6.17055 12.6167 5.8545C12.4908 5.53846 12.273 5.26744 11.9914 5.07651C11.7099 4.88558 11.3775 4.78352 11.0373 4.78352C10.6971 4.78352 10.3648 4.88558 10.0832 5.07651C9.80164 5.26744 9.58384 5.53846 9.45796 5.8545C9.33209 6.17055 9.30393 6.5171 9.37713 6.84932C9.45033 7.18154 9.62152 7.48416 9.86856 7.71805C9.57635 7.84629 9.30882 8.02464 9.07806 8.24505C8.8567 8.09823 8.62017 7.97569 8.37255 7.87955C8.72673 7.60021 8.98534 7.21771 9.11261 6.78496C9.23988 6.35221 9.22952 5.8906 9.08296 5.464C8.9364 5.03739 8.66089 4.66688 8.29454 4.40371C7.92819 4.14054 7.48911 3.99773 7.03805 3.99502C6.58743 3.99964 6.14945 4.1446 5.78505 4.40973C5.42065 4.67485 5.14795 5.04697 5.00488 5.4743C4.86181 5.90163 4.8555 6.36293 4.98681 6.79401C5.11812 7.2251 5.38053 7.60454 5.73754 7.87955C5.02705 8.14895 4.41548 8.62837 3.98423 9.25398C3.55298 9.87959 3.32252 10.6217 3.32352 11.3816C3.32267 11.5283 3.3598 11.6727 3.43129 11.8008C3.50279 11.9289 3.60622 12.0363 3.73153 12.1126C4.58705 12.6533 5.56155 12.9772 6.57054 13.0561H7.07205C7.62825 13.0443 8.18138 12.9702 8.72106 12.8351C9.32187 12.672 9.89489 12.4198 10.4211 12.0871C10.5775 11.9976 10.6977 11.8563 10.7611 11.6876H11.0841C11.9858 11.6877 12.8694 11.4344 13.6341 10.9566C13.7388 10.8884 13.8247 10.7952 13.8841 10.6853C13.9435 10.5754 13.9744 10.4525 13.9741 10.3276C13.975 9.94811 13.9003 9.57227 13.7544 9.22201C13.6085 8.87174 13.3942 8.55407 13.1241 8.28755C12.856 8.0425 12.5447 7.84939 12.2061 7.71805ZM11.0331 5.45703C11.2842 5.48013 11.5177 5.59624 11.6877 5.78258C11.8577 5.96892 11.9519 6.21206 11.9519 6.46429C11.9519 6.71652 11.8577 6.95965 11.6877 7.146C11.5177 7.33234 11.2842 7.44845 11.0331 7.47155C10.893 7.48442 10.7518 7.46796 10.6185 7.42319C10.4852 7.37843 10.3626 7.30635 10.2587 7.21156C10.1548 7.11678 10.0718 7.00136 10.0151 6.8727C9.95827 6.74403 9.92894 6.60493 9.92894 6.46429C9.92894 6.32365 9.95827 6.18455 10.0151 6.05588C10.0718 5.92721 10.1548 5.8118 10.2587 5.71701C10.3626 5.62223 10.4852 5.55015 10.6185 5.50539C10.7518 5.46062 10.893 5.44415 11.0331 5.45703ZM5.56754 6.17104C5.56754 5.8802 5.65378 5.59589 5.81536 5.35407C5.97694 5.11224 6.20661 4.92376 6.47531 4.81246C6.74401 4.70116 7.03968 4.67204 7.32493 4.72878C7.61018 4.78552 7.8722 4.92558 8.07785 5.13123C8.28351 5.33688 8.42356 5.5989 8.4803 5.88416C8.53704 6.16941 8.50792 6.46508 8.39662 6.73378C8.28532 7.00248 8.09684 7.23214 7.85502 7.39372C7.61319 7.5553 7.32888 7.64155 7.03805 7.64155C6.84462 7.64267 6.65289 7.60541 6.47398 7.53191C6.29506 7.45841 6.1325 7.35013 5.99573 7.21336C5.85895 7.07658 5.75068 6.91403 5.67718 6.73511C5.60368 6.55619 5.56641 6.36446 5.56754 6.17104ZM9.98756 11.5346C9.60437 11.7737 9.19331 11.965 8.76356 12.1041C8.21335 12.2779 7.64051 12.3695 7.06355 12.3761C6.68101 12.3718 6.29971 12.3319 5.92454 12.2571C5.25448 12.1319 4.61419 11.881 4.03753 11.5176C4.02764 11.4963 4.02251 11.4731 4.02251 11.4496C4.02251 11.4261 4.02764 11.4029 4.03753 11.3816C4.0157 10.969 4.07812 10.5563 4.22097 10.1686C4.36382 9.78095 4.58413 9.42643 4.86845 9.12667C5.15277 8.82691 5.49515 8.58818 5.87474 8.42505C6.25432 8.26191 6.66314 8.17778 7.0763 8.17778C7.48945 8.17778 7.89828 8.26191 8.27786 8.42505C8.65744 8.58818 8.99982 8.82691 9.28415 9.12667C9.56847 9.42643 9.78877 9.78095 9.93162 10.1686C10.0745 10.5563 10.1369 10.969 10.1151 11.3816C10.1167 11.4092 10.1103 11.4367 10.0967 11.4608C10.0832 11.4849 10.063 11.5046 10.0386 11.5176L9.98756 11.5346ZM13.2176 10.3956C12.5649 10.8026 11.8108 11.0176 11.0416 11.0161H10.7696C10.683 10.1575 10.3015 9.35548 9.69006 8.74655L9.63906 8.69555C9.96721 8.42594 10.3651 8.25499 10.7866 8.20255H11.0501C11.3365 8.20255 11.6202 8.25911 11.8848 8.369C12.1493 8.47888 12.3896 8.63993 12.5918 8.84289C12.7939 9.04585 12.954 9.28674 13.0629 9.55173C13.1717 9.81672 13.2272 10.1006 13.2261 10.3871C13.2261 10.3871 13.2176 10.3871 13.2091 10.3956H13.2176Z" fill="black"/>
</svg>
