<svg width="20" height="20" viewBox="0 0 20 20" fill="none" xmlns="http://www.w3.org/2000/svg">
<rect x="0.5" y="0.5" width="19" height="19" rx="3.5" stroke="black"/>
<path d="M10 3.80198L11.4048 7.1796C11.5488 7.52584 11.8744 7.76241 12.2482 7.79237L15.8947 8.08471L13.1165 10.4645C12.8317 10.7085 12.7073 11.0913 12.7943 11.456L13.6431 15.0143L10.5213 13.1075C10.2012 12.912 9.79876 12.912 9.47875 13.1075L6.3569 15.0143L7.20568 11.456C7.29269 11.0913 7.16831 10.7085 6.88353 10.4645L4.10533 8.08471L7.75176 7.79237C8.12555 7.76241 8.45116 7.52584 8.59517 7.1796L8.13351 6.98759L8.59517 7.1796L10 3.80198Z" stroke="black"/>
</svg>
